<svg xmlns="http://www.w3.org/2000/svg" width="1401.432" height="635.231" viewBox="0 0 1401.432 635.231">
  <g id="Group_31" data-name="Group 31" transform="translate(-278 -178)">
    <g id="Group_27" data-name="Group 27" transform="translate(-15 -44)">
      <g id="Group_28" data-name="Group 28">
        <g id="Group_23" data-name="Group 23" transform="translate(192 -49)">
          <g id="Group_21" data-name="Group 21">
            <g id="Group_20" data-name="Group 20">
              <g id="Component_1_1" data-name="Component 1 – 1" transform="translate(308 271)">
                <g id="Group_18" data-name="Group 18" transform="translate(-316 -201)">
                  <g id="Group_17" data-name="Group 17" transform="translate(-51 4)">
                    <g id="Group_16" data-name="Group 16">
                      <g id="Group_13" data-name="Group 13" transform="translate(736 118.003)">
                        <path id="Path_91" data-name="Path 91" d="M922.66,586.49c-4.3,4.18-24.33,8.49-24.33,8.49s4.91-19.89,9.21-24.06a10.852,10.852,0,0,1,15.12,15.57Z" transform="translate(-100.52 -33.01)" fill="#eb6d6d"/>
                        <path id="Path_92" data-name="Path 92" d="M911.33,622.48c-5.88,1.17-25-6.09-25-6.09s14.94-14,20.81-15.2a10.853,10.853,0,1,1,4.23,21.29Z" transform="translate(-100.52 -33.01)" fill="#eb6d6d"/>
                        <path id="Path_93" data-name="Path 93" d="M870.08,661.42c-5.67-2-18.54-17.9-18.54-17.9s20-4.56,25.64-2.6a10.85,10.85,0,1,1-7.1,20.5Z" transform="translate(-100.52 -33.01)" fill="#eb6d6d"/>
                        <path id="Path_94" data-name="Path 94" d="M832.23,683.86c-5.91-1-21.29-14.51-21.29-14.51s18.91-7.88,24.82-6.9a10.85,10.85,0,1,1-3.53,21.41Z" transform="translate(-100.52 -33.01)" fill="#eb6d6d"/>
                        <path id="Path_95" data-name="Path 95" d="M869.59,600.85c0,6,10.84,23.37,10.84,23.37s10.86-17.37,10.86-23.36a10.85,10.85,0,0,0-21.7,0Z" transform="translate(-100.52 -33.01)" fill="#eb6d6d"/>
                        <path id="Path_96" data-name="Path 96" d="M825.66,627.65c1.8,5.72,17.34,19.06,17.34,19.06s5.16-19.83,3.37-25.55a10.852,10.852,0,1,0-20.71,6.49Z" transform="translate(-100.52 -33.01)" fill="#eb6d6d"/>
                        <path id="Path_97" data-name="Path 97" d="M786.54,659.55c.8,5.94,13.87,21.72,13.87,21.72s8.44-18.67,7.64-24.61a10.852,10.852,0,1,0-21.51,2.89Z" transform="translate(-100.52 -33.01)" fill="#eb6d6d"/>
                        <g id="Group_11" data-name="Group 11">
                          <g id="Group_9" data-name="Group 9">
                            <path id="Path_90" data-name="Path 90" d="M785.47,701.9s25.06-44.39,62.79-57.18a77.24,77.24,0,0,0,39.12-29.26,129.523,129.523,0,0,0,11.54-20.76" transform="translate(-100.52 -33.01)" fill="none" stroke="#535461" stroke-miterlimit="10" stroke-width="2"/>
                            <path id="Path_98" data-name="Path 98" d="M922.66,586.49c-4.3,4.18-24.33,8.49-24.33,8.49s4.91-19.89,9.21-24.06a10.852,10.852,0,0,1,15.12,15.57Z" transform="translate(-100.52 -33.01)" opacity="0.25"/>
                            <path id="Path_99" data-name="Path 99" d="M911.33,622.48c-5.88,1.17-25-6.09-25-6.09s14.94-14,20.81-15.2a10.853,10.853,0,1,1,4.23,21.29Z" transform="translate(-100.52 -33.01)" opacity="0.25"/>
                            <path id="Path_100" data-name="Path 100" d="M870.08,661.42c-5.67-2-18.54-17.9-18.54-17.9s20-4.56,25.64-2.6a10.85,10.85,0,1,1-7.1,20.5Z" transform="translate(-100.52 -33.01)" opacity="0.25"/>
                            <path id="Path_101" data-name="Path 101" d="M832.23,683.86c-5.91-1-21.29-14.51-21.29-14.51s18.91-7.88,24.82-6.9a10.85,10.85,0,1,1-3.53,21.41Z" transform="translate(-100.52 -33.01)" opacity="0.25"/>
                            <path id="Path_102" data-name="Path 102" d="M869.59,600.85c0,6,10.84,23.37,10.84,23.37s10.86-17.37,10.86-23.36a10.85,10.85,0,0,0-21.7,0Z" transform="translate(-100.52 -33.01)" opacity="0.25"/>
                            <path id="Path_103" data-name="Path 103" d="M825.66,627.65c1.8,5.72,17.34,19.06,17.34,19.06s5.16-19.83,3.37-25.55a10.852,10.852,0,1,0-20.71,6.49Z" transform="translate(-100.52 -33.01)" opacity="0.25"/>
                            <path id="Path_104" data-name="Path 104" d="M786.54,659.55c.8,5.94,13.87,21.72,13.87,21.72s8.44-18.67,7.64-24.61a10.852,10.852,0,1,0-21.51,2.89Z" transform="translate(-100.52 -33.01)" opacity="0.25"/>
                            <path id="Path_105" data-name="Path 105" d="M786.91,701s4.92-50.74,34.24-77.72a77.24,77.24,0,0,0,23.9-42.61A129.14,129.14,0,0,0,847.19,557" transform="translate(-100.52 -33.01)" fill="none" stroke="#535461" stroke-miterlimit="10" stroke-width="2"/>
                            <path id="Path_106" data-name="Path 106" d="M865.56,539.92c-2.24,5.56-18.8,17.62-18.8,17.62s-3.56-20.18-1.32-25.73a10.85,10.85,0,1,1,20.12,8.11Z" transform="translate(-100.52 -33.01)" fill="#eb6d6d"/>
                            <path id="Path_107" data-name="Path 107" d="M869.79,577.41c-4.9,3.45-25.36,4.57-25.36,4.57s8-18.87,12.87-22.32a10.852,10.852,0,1,1,12.49,17.75Z" transform="translate(-100.52 -33.01)" fill="#eb6d6d"/>
                            <path id="Path_108" data-name="Path 108" d="M847.86,629.73c-6,.5-24.2-8.86-24.2-8.86S840.07,608.61,846,608.1a10.853,10.853,0,1,1,1.82,21.63Z" transform="translate(-100.52 -33.01)" fill="#eb6d6d"/>
                            <path id="Path_109" data-name="Path 109" d="M822.35,665.58c-5.8,1.5-25.34-4.64-25.34-4.64s14.09-14.87,19.89-16.37a10.849,10.849,0,1,1,5.451,21Z" transform="translate(-100.52 -33.01)" fill="#eb6d6d"/>
                            <path id="Path_110" data-name="Path 110" d="M822.87,574.54c2.42,5.48,19.38,17,19.38,17s2.89-20.28.46-25.76a10.849,10.849,0,1,0-19.842,8.781Z" transform="translate(-100.52 -33.01)" fill="#eb6d6d"/>
                            <path id="Path_111" data-name="Path 111" d="M793.57,616.85c3.95,4.5,23.57,10.4,23.57,10.4s-3.31-20.22-7.27-24.72a10.849,10.849,0,1,0-16.3,14.321Z" transform="translate(-100.52 -33.01)" fill="#eb6d6d"/>
                            <path id="Path_112" data-name="Path 112" d="M770.73,661.87c3.14,5.11,21.48,14.23,21.48,14.23s.15-20.48-3-25.59a10.85,10.85,0,0,0-18.49,11.36Z" transform="translate(-100.52 -33.01)" fill="#eb6d6d"/>
                          </g>
                        </g>
                      </g>
                      <path id="Path_173" data-name="Path 173" d="M424.35,62.67c29.21-26,75.06-31.33,116.8-29.26,131.09,6.52,249.42,69.8,351.78,141.39,37.06,25.91,73.54,53.84,97.59,89.53,49,72.65,34.44,173.29-33.64,233.14-23.17,20.36-51.25,36-80.08,49.81-51.26,24.6-106.57,44.35-164.75,50-41.48,4-83.48.75-124.73-4.84C472.09,576.78,359,542.22,264.17,483.1c-41.58-25.93-80.77-58.17-97.91-100.1s-6.17-95.13,36.29-120c17.56-10.27,38.56-14.91,59.11-19.27,30.26-6.41,61-12.73,88.3-25.76,28.21-13.46,61.6-39.49,56-69.29C400,116.75,395.18,88.67,424.35,62.67Z" transform="translate(288.48 163.993)" fill="#eb6d6d" opacity="0.1"/>
                      <g id="undraw_page_not_found_su7k_1_" data-name="undraw_page_not_found_su7k (1)" transform="translate(389 248)">
                        <ellipse id="Ellipse_18" data-name="Ellipse 18" cx="527.5" cy="34.922" rx="527.5" ry="34.922" transform="translate(13.143 514.387)" fill="#f2f2f2"/>
                        <path id="Path_48" data-name="Path 48" d="M583.48,324.894c-85.944,0-147.651,55.139-147.651,183.8,0,145.813,61.707,184.411,147.651,184.411S734.807,650.83,734.807,508.692C734.807,356.753,669.424,324.894,583.48,324.894Zm.565,319.808c-59.527,0-90.626-34.923-90.626-135.916,0-89.112,32.372-136.1,91.9-136.1s91.9,30.868,91.9,136.1c0,98.448-33.646,135.917-93.172,135.917Z" transform="translate(-63.054 -157.885)" fill="#2f2e41"/>
                        <path id="Path_49" data-name="Path 49" d="M384.365,591.4H348.831V486.762a20.956,20.956,0,0,0-20.956-20.956h-8.326a20.956,20.956,0,0,0-20.956,20.956V591.4H198.363a11.963,11.963,0,0,1-10.578-17.552l106.082-200.78a20.956,20.956,0,0,0-9.58-28.739l-6.262-2.957a20.956,20.956,0,0,0-27.429,9.07L121.214,592.475a28.416,28.416,0,0,0-3.356,13.4h0a28.416,28.416,0,0,0,28.416,28.416H298.593v66.167a25.119,25.119,0,0,0,25.119,25.119h0a25.119,25.119,0,0,0,25.119-25.119V634.287h35.534a21.443,21.443,0,0,0,21.443-21.443h0A21.443,21.443,0,0,0,384.365,591.4Z" transform="translate(-63.054 -157.885)" fill="#eb6d6d"/>
                        <path id="Path_50" data-name="Path 50" d="M1042.36,591.4h-35.534V486.762a20.956,20.956,0,0,0-20.954-20.956h-8.326a20.956,20.956,0,0,0-20.956,20.956V591.4H856.359a11.963,11.963,0,0,1-10.578-17.552l106.083-200.78a20.956,20.956,0,0,0-9.58-28.739l-6.262-2.957a20.956,20.956,0,0,0-27.429,9.07L779.211,592.475a28.416,28.416,0,0,0-3.356,13.4h0a28.416,28.416,0,0,0,28.416,28.416H956.589v66.167a25.119,25.119,0,0,0,25.119,25.119h0a25.119,25.119,0,0,0,25.119-25.119V634.287h35.534a21.443,21.443,0,0,0,21.443-21.443h0A21.443,21.443,0,0,0,1042.36,591.4Z" transform="translate(-63.054 -157.885)" fill="#eb6d6d"/>
                        <path id="Path_51" data-name="Path 51" d="M394.168,579.148H358.634V474.509a20.956,20.956,0,0,0-20.956-20.956h-8.326A20.956,20.956,0,0,0,308.4,474.509V579.148H208.165A11.963,11.963,0,0,1,197.587,561.6L303.67,360.816a20.956,20.956,0,0,0-9.58-28.739l-6.262-2.957a20.956,20.956,0,0,0-27.429,9.07L131.017,580.222a28.416,28.416,0,0,0-3.356,13.4h0a28.416,28.416,0,0,0,28.416,28.416H308.395V688.2a25.119,25.119,0,0,0,25.119,25.119h0A25.119,25.119,0,0,0,358.633,688.2V622.034h35.534a21.443,21.443,0,0,0,21.443-21.443h0a21.443,21.443,0,0,0-21.442-21.443Z" transform="translate(-63.054 -157.885)" fill="none" stroke="#3f3d56" stroke-miterlimit="10" stroke-width="1"/>
                        <path id="Path_52" data-name="Path 52" d="M1060.74,579.148h-35.534V474.509a20.956,20.956,0,0,0-20.956-20.956h-8.325a20.956,20.956,0,0,0-20.956,20.956V579.148H874.739A11.963,11.963,0,0,1,864.162,561.6l106.082-200.78a20.956,20.956,0,0,0-9.58-28.739L954.4,329.12a20.956,20.956,0,0,0-27.429,9.07L797.59,580.222a28.416,28.416,0,0,0-3.356,13.4h0a28.416,28.416,0,0,0,28.416,28.416H974.969V688.2a25.119,25.119,0,0,0,25.119,25.119h0a25.119,25.119,0,0,0,25.119-25.119V622.034h35.534a21.443,21.443,0,0,0,21.443-21.443h0a21.443,21.443,0,0,0-21.444-21.443Z" transform="translate(-63.054 -157.885)" fill="none" stroke="#3f3d56" stroke-miterlimit="10" stroke-width="1"/>
                        <path id="Path_53" data-name="Path 53" d="M603.085,313.866c-85.944,0-147.651,55.139-147.651,183.8,0,145.813,61.707,184.411,147.651,184.411S754.412,639.8,754.412,497.664C754.412,345.725,689.029,313.866,603.085,313.866Zm.565,319.808c-59.527,0-90.626-34.923-90.626-135.916,0-89.112,32.372-136.1,91.9-136.1s91.9,30.868,91.9,136.1c0,98.448-33.645,135.917-93.172,135.917Z" transform="translate(-63.054 -157.885)" fill="none" stroke="#3f3d56" stroke-miterlimit="10" stroke-width="1"/>
                        <g id="Group_29" data-name="Group 29" transform="translate(6 -17)">
                          <ellipse id="Ellipse_20" data-name="Ellipse 20" cx="36.186" cy="46.885" rx="36.186" ry="46.885" transform="translate(466.421)" fill="#2f2e41"/>
                          <path id="Path_57" data-name="Path 57" d="M540.1,318.206a19.77,19.77,0,0,0-1.2,15.075,26.339,26.339,0,0,0,8.829,12.5c10.095,8.092,23.988,9.205,36.925,9.093a284.652,284.652,0,0,0,33.905-2.324,40.537,40.537,0,0,0,11-2.554c4.222-1.827,7.933-5.178,9.436-9.526s.436-9.672-3.134-12.574c-3.137-2.55-7.463-2.9-11.5-3.143l-23.088-1.387c2.281-2.308,5.318-3.614,8.1-5.292,3.685-2.226,6.134-5.965,8.813-9.335a128.994,128.994,0,0,1,13.439-13.817c.751,4.31,3.478,7.85,6.687,10.824s6.908,5.368,10.244,8.2c8.079,6.858,13.9,16.167,22.392,22.5A43.829,43.829,0,0,0,687,328.43l-3.3-5.981a3.94,3.94,0,0,0-1.245-1.553c-.935-.575-2.14-.279-3.225-.441-2.9-.435-4.168-3.784-5.306-6.487-3.125-7.422-9.108-13.18-14.218-19.4a98.013,98.013,0,0,1-10-14.723c-1.716-3.1-3.288-6.331-5.617-9s-5.594-4.773-9.138-4.781c-3.132-.007-6.021,1.584-8.714,3.183a230.469,230.469,0,0,0-23.63,16.1c-3.944,3.062-7.863,6.3-12.489,8.174-1.948.79-4,1.331-5.869,2.292-3.273,1.684-5.757,4.534-8.431,7.064C566.277,311.892,553.219,317.738,540.1,318.206Z" transform="translate(-63.054 -157.885)" fill="#3f3d56"/>
                          <path id="Path_58" data-name="Path 58" d="M588.374,253.983a23.774,23.774,0,0,1-1.734,8.033,10.045,10.045,0,0,1-5.768,5.573,12.375,12.375,0,0,1-5.623.182,10.882,10.882,0,0,1-4.581-1.561c-2.165-1.488-3.244-4.144-3.638-6.743s-.217-5.249-.469-7.863a42.948,42.948,0,0,0-1.2-6.255c-.17-.683-.343-1.362-.513-2.042s-.33-1.359-.481-2.039c-.138-.639-.267-1.281-.378-1.926-.091-.544-.173-1.092-.233-1.643a18.423,18.423,0,0,0-.809-4.811,14.608,14.608,0,0,0-1.687-2.854c-.286-.409-.563-.818-.818-1.243a5.89,5.89,0,0,1-.972-3.748,3.279,3.279,0,0,1,.148-.6c.025-.075.054-.151.085-.223a1.8,1.8,0,0,0,1.23-1.149,3.433,3.433,0,0,0-.148-1.778,11.317,11.317,0,0,0-.96-2.288c-.264-.478-1.161-1.34-1.167-1.888-.013-1.1,2.14-1.989,3.011-2.423a16.8,16.8,0,0,1,8.6-1.743c1.9.129,3.968.714,5.019,2.31.944,1.438.818,3.3,1.221,4.972a1.47,1.47,0,0,0,.3.664,1.341,1.341,0,0,0,.74.34,4.549,4.549,0,0,0,1.416.057h0a2.929,2.929,0,0,0,.371-.053,4.957,4.957,0,0,0,2.033-.878q.585-.156,1.18-.255a.252.252,0,0,0,.047-.009c1.576,4.975,1.781,10.308,3.071,15.374.639,2.52,1.554,5.009,1.683,7.6.009.113.013.23.016.346.019.834-.047,1.674-.013,2.5a6.984,6.984,0,0,0,.126,1.114,15.6,15.6,0,0,0,.526,1.743l.009.028c.06.183.116.368.164.554.035.135.066.267.091.4l0,.009A14.941,14.941,0,0,1,588.374,253.983Z" transform="translate(-63.054 -157.885)" fill="#fbbebe"/>
                          <circle id="Ellipse_21" data-name="Ellipse 21" cx="18.565" cy="18.565" r="18.565" transform="translate(484.672 26.432)" fill="#fbbebe"/>
                          <path id="Path_59" data-name="Path 59" d="M684.157,304.033a30.445,30.445,0,0,0-5.236-14.1l.2,1.2c.379,2.254.812,4.818,1.245,7.382A3.214,3.214,0,0,1,677,297.482a10.338,10.338,0,0,1-1.765-3.276,67.469,67.469,0,0,0-8.209-14.736c-11.819-.985-23.5-5.884-33.9-11.6s-20.126-12.552-30.384-18.5a43.573,43.573,0,0,0-5.544-2.832c-3.21-1.287-6.812-1.954-9.855-3.468-.2-.1-.409-.208-.61-.318a12.578,12.578,0,0,1-1.945-1.306,10.336,10.336,0,0,1-.931-.856,20.352,20.352,0,0,1-3.559-5.953c-1.633-3.612-2.215-7.97-3.845-11.583a11.2,11.2,0,0,1,2.5-1.765h0c.132-.069.264-.135.4-.2a11.937,11.937,0,0,1,2-.733q.585-.156,1.18-.255a.25.25,0,0,0,.047-.009,11.565,11.565,0,0,1,5.491.434c2.587.875,4.767,2.621,6.941,4.273a114.015,114.015,0,0,1,10.148,8.049c1.794,1.718,3.43,3.606,5.359,5.167a42.146,42.146,0,0,0,5.057,3.351q15.656,9.327,31.315,18.65c3.534,2.105,7.07,4.21,10.526,6.438,5.249,3.386,10.308,7.055,15.365,10.721q4.47,3.238,8.936,6.479A9.728,9.728,0,0,1,684.264,286a8.472,8.472,0,0,1,1.123,3.433A31.387,31.387,0,0,1,684.157,304.033Z" transform="translate(-63.054 -157.885)" fill="#fbbebe"/>
                          <path id="Path_60" data-name="Path 60" d="M592.977,267.944c-1.252,5.617-6.929,9.012-9.9,13.946-3.688,6.123-2.184,13.241-.8,20.255l-7.593,6.542c-1.4,1.2-2.794,2.4-4.3,3.464a57.347,57.347,0,0,1-6.86,3.94q-3.361,1.728-6.721,3.458a32.127,32.127,0,0,1-6.58,2.788c-4.415,1.133-9.1.34-13.471-.972a6.087,6.087,0,0,1-1.473-.6,2.394,2.394,0,0,1-.7-.633,3.91,3.91,0,0,1-.444-2.539c.444-7.351,2.24-14.547,4.031-21.69a85.268,85.268,0,0,1,3.848-12.577,85.069,85.069,0,0,1,5.415-10.151,68.364,68.364,0,0,1,7.93-11.513,18.478,18.478,0,0,0,3.675-4.739c1.117-2.549.686-5.472.913-8.247a17.15,17.15,0,0,1,1.633-6.007v0a17.1,17.1,0,0,1,1.743-2.882q.458,1.067.916,2.13.3.7.6,1.394.387.9.768,1.787,1.1,2.558,2.2,5.113a21.591,21.591,0,0,0,3.335,5.944,6.5,6.5,0,0,0,11.123-.853,21.262,21.262,0,0,0,2.272-6.013,19.215,19.215,0,0,0,.252-7.835c-.758-5.009-2.889-10.126-4.437-14.78a14.942,14.942,0,0,1-1.079-4.871,3.35,3.35,0,0,1,.057-.56c.009-.047.019-.1.028-.145a11.944,11.944,0,0,1,2-.733q.585-.156,1.18-.255,2.044,11.064,4.094,22.127c.031.173.066.346.1.522.2,1.057.393,2.115.614,3.169.2.957.412,1.91.651,2.857l.009.028c.082.321.167.639.255.957l0,.009c.242.868.513,1.731.818,2.58C590.938,257.475,594.164,262.629,592.977,267.944Z" transform="translate(-63.054 -157.885)" fill="#eb6d6d"/>
                          <path id="Path_61" data-name="Path 61" d="M668.321,346.877a6.582,6.582,0,0,0,.61,3.143c1.162,2.124,3.95,2.606,6.362,2.8a188.379,188.379,0,0,0,42.266-1.288,4.886,4.886,0,0,0,2.151-.668c1.99-1.4.763-4.8-1.41-5.884s-4.751-.826-7.135-1.3a22.48,22.48,0,0,1-6.678-2.9q-7.252-4.167-14.293-8.688c-2.795-1.795-6.093-3.71-9.24-2.646C672.43,332.343,668.265,337.681,668.321,346.877Z" transform="translate(-63.054 -157.885)" fill="#3f3d56"/>
                          <path id="Path_62" data-name="Path 62" d="M564.437,240.874v0c-.022.132-.044.261-.072.39-.035.214-.076.431-.116.645-.39,2-.868,3.987-1.419,5.963-1.51,5.459-3.534,10.831-5.541,16.123q-8.081,21.287-16.164,42.577c-1.359,3.575-2.716,7.152-4.261,10.655-.516,1.167-1.048,2.344-1.576,3.534-1.894,4.257-3.713,8.653-4.317,13.184a27.451,27.451,0,0,0-.192,9.04c.6,2.97,2.407,5.872,5.23,6.97,1.378.538,3.351,1.259,2.974,2.69-.2.787-1.1,1.171-1.9,1.3a7.312,7.312,0,0,1-5.966-1.718c-1.507-1.337-2.665-3.417-4.67-3.641-1.388-.151-2.665.68-3.936,1.262-5.186,2.369-11.227.711-16.674-.972.428-2.206,2.643-3.66,4.843-4.1s4.475-.129,6.718-.189a3.509,3.509,0,0,0,2.042-.525,3.706,3.706,0,0,0,1.1-1.882,78.97,78.97,0,0,0,3.213-13.147c.724-4.666,1.026-9.405,2.058-14.015.8-3.6,2.042-7.08,3.106-10.61a224.694,224.694,0,0,0,5.06-22.077,78.044,78.044,0,0,0,1.425-9.368c.179-2.612.094-5.236.346-7.838a60.893,60.893,0,0,1,2.111-10q1.444-5.348,2.885-10.689c1.425-5.271,2.955-10.746,6.567-14.843a13.962,13.962,0,0,1,10.028-4.789,9.88,9.88,0,0,1,2.13.23c.116.028.233.057.349.088a8.635,8.635,0,0,1,2.174.9c1.114-.708,1.68-.459,2.42.632a6.974,6.974,0,0,1,.881,3.795,52.429,52.429,0,0,1-.856,10.415Z" transform="translate(-63.054 -157.885)" fill="#fbbebe"/>
                          <path id="Path_63" data-name="Path 63" d="M565.661,245.046l-.047.047-.255.255-2.53,2.527-1.24-5.208-4.251-17.854a9.883,9.883,0,0,1,2.13.23,3.284,3.284,0,0,1,.148-.6l.2.689,1.441,4.9,2.728,9.308.45,1.532v0Z" transform="translate(-63.054 -157.885)" fill="#eb6d6d"/>
                          <path id="Path_64" data-name="Path 64" d="M581.715,188.087a12.582,12.582,0,0,1-3.7,8.9,12.31,12.31,0,0,1-1.36,1.176,12.528,12.528,0,0,1-7.536,2.524h-15.1a12.59,12.59,0,1,1,0-25.18h15.1A12.629,12.629,0,0,1,581.715,188.087Z" transform="translate(-63.054 -161.885)" fill="#2f2e41"/>
                          <path id="Path_68" data-name="Path 68" d="M674.14,291.64s3.252,9.372,6.229,6.876L678,286.267Z" transform="translate(-63.054 -157.885)" fill="#fbbebe"/>
                        </g>
                        <ellipse id="Ellipse_23" data-name="Ellipse 23" cx="17" cy="22" rx="17" ry="22" transform="translate(463.946 297.116)" fill="#2f2e41"/>
                        <ellipse id="Ellipse_24" data-name="Ellipse 24" cx="17" cy="22" rx="17" ry="22" transform="translate(556.446 297.616)" fill="#2f2e41"/>
                        <path id="Path_87" data-name="Path 87" d="M623.5,542.5c0,9.94-13.88,18-31,18s-31-8.06-31-18c0-8.61,10.41-15.81,24.32-17.57a50.109,50.109,0,0,1,6.68-.43,50.7,50.7,0,0,1,11.13,1.2C615.25,528.29,623.5,534.84,623.5,542.5Z" transform="translate(-63.054 -157.885)" fill="#2f2e41"/>
                        <ellipse id="Ellipse_25" data-name="Ellipse 25" cx="17" cy="22" rx="17" ry="22" transform="translate(467.946 292.116)" fill="none" stroke="#3f3d56" stroke-miterlimit="10" stroke-width="1"/>
                        <ellipse id="Ellipse_26" data-name="Ellipse 26" cx="17" cy="22" rx="17" ry="22" transform="translate(560.446 292.616)" fill="none" stroke="#3f3d56" stroke-miterlimit="10" stroke-width="1"/>
                        <ellipse id="Ellipse_27" data-name="Ellipse 27" cx="31" cy="18" rx="31" ry="18" transform="translate(502.446 361.616)" fill="none" stroke="#3f3d56" stroke-miterlimit="10" stroke-width="1"/>
                        <path id="Path_88" data-name="Path 88" d="M604,527.2a4.936,4.936,0,0,1-1.32,3.392A4.339,4.339,0,0,1,599.5,532h-10a4.664,4.664,0,0,1-4.5-4.8,4.9,4.9,0,0,1,.82-2.741A47.035,47.035,0,0,1,592.5,524a47.667,47.667,0,0,1,11.13,1.28A5.067,5.067,0,0,1,604,527.2Z" transform="translate(-63.054 -157.885)" fill="#fff"/>
                        <circle id="Ellipse_28" data-name="Ellipse 28" cx="5" cy="5" r="5" transform="translate(479.946 303.116)" fill="#fff"/>
                        <circle id="Ellipse_29" data-name="Ellipse 29" cx="5" cy="5" r="5" transform="translate(572.946 303.116)" fill="#fff"/>
                        <circle id="Ellipse_30" data-name="Ellipse 30" cx="5" cy="5" r="5" transform="translate(577.946 350.116)" fill="#eb6d6d" opacity="0.3"/>
                        <circle id="Ellipse_31" data-name="Ellipse 31" cx="5" cy="5" r="5" transform="translate(455.946 350.116)" fill="#eb6d6d" opacity="0.3"/>
                      </g>
                      <g id="Group_3" data-name="Group 3" transform="translate(367 190.003)">
                        <circle id="Ellipse_42" data-name="Ellipse 42" cx="31.5" cy="31.5" r="31.5" transform="translate(148.49 93.02)" fill="#eb6d6d" opacity="0.1"/>
                        <circle id="Ellipse_43" data-name="Ellipse 43" cx="19.5" cy="19.5" r="19.5" transform="translate(94.49 30.02)" fill="#eb6d6d" opacity="0.1"/>
                        <circle id="Ellipse_44" data-name="Ellipse 44" cx="12" cy="12" r="12" transform="translate(0 81.02)" fill="#eb6d6d" opacity="0.1"/>
                      </g>
                    </g>
                    <path id="Path_174" data-name="Path 174" d="M2845.956-98.938s-20.789-30.617-17.387-35.909,26.081,25.7,26.081,25.7-4.914-27.593,0-30.239,8.694,27.215,8.694,27.215Z" transform="translate(-2039 554)" fill="#2f2e41" stroke="#2f2e41" stroke-width="1"/>
                  </g>
                </g>
              </g>
            </g>
          </g>
        </g>
        <g id="Group_30" data-name="Group 30">
          <g id="Group_8" data-name="Group 8" transform="translate(138 17)">
            <g id="Group_7" data-name="Group 7" transform="translate(155 379)">
              <g id="Group_5" data-name="Group 5">
                <path id="Path_7" data-name="Path 7" d="M312.989,575.758l-26.217-2.017-18.986-4.6a9.753,9.753,0,1,0-1.85,12.656l0,.014,11.428,4.706,49.072,16.805,6.05-4.706Z" transform="translate(-90.258 -231.659)" fill="#ffb9b9"/>
                <g id="Group_4" data-name="Group 4">
                  <path id="Path_1" data-name="Path 1" d="M314.028,475.274a9.751,9.751,0,1,0-19.407,1.282l-28.014,36.686a13.582,13.582,0,0,0,1.836,14.914l2.2,2.564,10.083-2.017,11.428-10.083-1.345-11.428,14.117-22.183-.018-.016a9.743,9.743,0,0,0,9.124-9.719Z" transform="translate(-90.258 -231.659)" fill="#ffb9b9"/>
                  <path id="Path_2" data-name="Path 2" d="M30.041,422.968l-4.573-16.984L88.8,380.265l6.749,25.066Z" fill="#ffb8b8"/>
                  <path id="Path_3" data-name="Path 3" d="M105,663.391,90.258,608.629l.693-.187A22.075,22.075,0,0,1,118,624.018h0l9.005,33.447Z" transform="translate(-90.258 -231.659)" fill="#2f2e41"/>
                  <path id="Path_4" data-name="Path 4" d="M117.278,420.254,103.054,409.91l33.131-59.789,20.994,15.267Z" fill="#ffb8b8"/>
                  <path id="Path_5" data-name="Path 5" d="M201.137,668.341l-45.866-33.356.422-.58a22.075,22.075,0,0,1,30.835-4.87h0l28.013,20.373Z" transform="translate(-90.258 -231.659)" fill="#2f2e41"/>
                  <path id="Path_6" data-name="Path 6" d="M328.45,568.364l-35.795-34.773a18.076,18.076,0,0,0-23.668-1.322L201.4,607.352l6.05,9.411,64.533-43.694,43.694,57.139,41.678-20.838Z" transform="translate(-90.258 -231.659)" fill="#2f2e41"/>
                  <path id="Path_8" data-name="Path 8" d="M285.92,416.7l-14.789,9.411H253.653l-81.338-30.25L53.332,417.371l-3.361-25.545,108.9-47.727,95.455,31.594Z" fill="#2f2e41"/>
                  <circle id="Ellipse_1" data-name="Ellipse 1" cx="26.217" cy="26.217" r="26.217" transform="translate(228.109 200.915)" fill="#ffb9b9"/>
                  <path id="Path_9" data-name="Path 9" d="M412.417,563.463a150.628,150.628,0,0,1-7.387,46.589l-1.964,6.039-9.411,43.022L383.572,661.8l-7.394-9.411-14.789-10.755-10.755-17.478-9.223-15.367-2.877-4.8-10.083-50.417-38.316-21.511-12.772-2.017,2.689-7.394,11.428-15.461,11.427-1.345,3.361-2.689,2.689,1.344,14.823,5.71,48.057-20.3,7.031,1.15,24.2,20.167A150.5,150.5,0,0,1,412.417,563.463Z" transform="translate(-90.258 -231.659)" fill="#ccc"/>
                  <path id="Path_11" data-name="Path 11" d="M263.065,289.649l-20.839,38.316-12.1,13.445L219.371,344.1l28.9,31.594,41.005-36.972,25.544-16.806Z" fill="#ccc"/>
                  <path id="Path_12" data-name="Path 12" d="M324.193,439.3l-2.841,1.093a3.965,3.965,0,0,1-1.06-5.507l.047-.067-5.249-.246a39.637,39.637,0,0,1,59.173-4.769c.239-.823,2.844.778,3.908,2.4.357-1.339,2.8,5.135,3.664,9.712.4-1.524,1.938.936.591,3.3.854-.125,1.239,2.059.578,3.276.934-.439.777,2.169-.236,3.911,1.333-.118-.114,27.331-20.114,25.331-1.392-6.4-1-6-2.64-14.226-.763-.81-1.6-1.548-2.433-2.284l-4.513-3.983c-5.247-4.632-10.021-10.348-17.011-12.079-4.8-1.19-7.841-1.458-5.223-6.872-2.365.987-4.574,2.455-6.961,3.372C323.9,440.9,324.239,440.055,324.193,439.3Z" transform="translate(-90.258 -231.659)" fill="#2f2e41"/>
                </g>
              </g>
              <circle id="Ellipse_2" data-name="Ellipse 2" cx="4.706" cy="4.706" r="4.706" transform="translate(262.729 225.451)" fill="#ffb9b9"/>
            </g>
          </g>
        </g>
      </g>
    </g>
  </g>
</svg>
