<?xml version="1.0" standalone="no"?>
<!DOCTYPE svg PUBLIC "-//W3C//DTD SVG 20010904//EN"
 "http://www.w3.org/TR/2001/REC-SVG-20010904/DTD/svg10.dtd">
<svg version="1.0" xmlns="http://www.w3.org/2000/svg"
 width="700.000000pt" height="700.000000pt" viewBox="0 0 700.000000 700.000000"
 preserveAspectRatio="xMidYMid meet">
<metadata>
Created by potrace 1.11, written by Peter Selinger 2001-2013
</metadata>
<g transform="translate(0.000000,700.000000) scale(0.100000,-0.100000)"
fill="#000000" stroke="none">
<path d="M3278 6995 c-1 -1 -43 -5 -93 -9 -49 -3 -101 -8 -115 -10 -14 -3 -52
-7 -85 -11 -32 -4 -62 -8 -65 -10 -3 -2 -28 -6 -55 -10 -28 -3 -99 -17 -160
-30 -60 -14 -121 -28 -135 -31 -138 -30 -442 -145 -635 -240 -364 -180 -639
-377 -925 -663 -271 -271 -465 -537 -633 -867 -68 -134 -139 -301 -183 -428
-26 -76 -82 -265 -90 -305 -3 -12 -11 -52 -20 -87 -17 -73 -40 -205 -49 -279
-4 -27 -8 -60 -10 -73 -27 -169 -27 -676 1 -892 7 -58 32 -218 39 -250 3 -14
8 -38 11 -55 2 -16 9 -46 14 -65 5 -19 11 -46 14 -60 2 -14 18 -72 35 -130
153 -536 443 -1037 830 -1435 190 -195 323 -307 541 -457 206 -142 368 -228
685 -362 17 -8 68 -26 115 -41 47 -15 92 -31 101 -35 14 -7 236 -66 284 -76
160 -33 331 -59 460 -70 166 -15 598 -9 760 10 17 2 57 7 90 10 32 4 62 9 65
11 3 1 25 6 50 9 229 31 541 125 809 243 588 259 1104 687 1462 1213 128 188
277 464 343 635 15 39 31 79 36 90 50 112 151 478 175 635 3 19 7 49 10 65 3
17 8 53 11 80 3 28 8 61 10 75 19 115 26 606 10 760 -4 41 -9 95 -12 120 -2
25 -6 59 -9 75 -3 17 -7 48 -11 70 -29 195 -122 551 -174 670 -5 11 -25 60
-45 110 -116 284 -299 592 -504 848 -104 129 -295 329 -396 412 -33 28 -66 56
-74 63 -67 64 -358 261 -506 343 -165 92 -520 249 -562 249 -7 0 -21 4 -31 10
-73 41 -513 138 -707 155 -38 4 -83 9 -100 12 -33 5 -571 13 -577 8z m471
-550 c88 -6 287 -30 331 -40 14 -3 41 -8 60 -11 126 -22 361 -91 502 -148 706
-285 1245 -821 1559 -1551 74 -171 163 -491 184 -660 3 -27 10 -75 14 -105 5
-30 9 -62 9 -70 1 -8 4 -64 8 -125 12 -169 6 -456 -11 -575 -2 -14 -6 -47 -9
-75 -3 -27 -8 -61 -11 -75 -2 -14 -6 -36 -9 -50 -14 -83 -21 -118 -52 -238
-125 -488 -393 -958 -747 -1314 -401 -402 -898 -678 -1432 -794 -38 -8 -86
-17 -105 -20 -19 -3 -40 -7 -47 -9 -6 -2 -38 -7 -70 -10 -32 -4 -69 -8 -83
-11 -44 -7 -252 -18 -355 -18 -202 0 -460 25 -625 60 -96 21 -259 62 -285 73
-11 5 -45 16 -75 26 -719 234 -1354 816 -1677 1537 -111 249 -196 553 -229
818 -3 25 -7 59 -9 75 -9 60 -18 253 -19 365 0 115 12 351 19 373 2 7 6 35 9
63 18 165 102 516 152 632 9 20 17 42 18 47 11 40 87 209 143 315 134 256 308
487 533 707 109 107 382 323 409 323 5 0 11 4 13 9 5 13 257 157 360 205 232
108 474 186 718 231 14 3 35 7 47 9 12 3 53 8 90 11 37 4 71 9 75 11 4 3 62 7
130 10 68 4 124 7 125 8 5 4 262 -3 342 -9z"/>
<path d="M3557 5524 c-1 -1 -58 -4 -126 -8 -68 -3 -126 -8 -130 -10 -3 -2 -35
-7 -71 -10 -36 -4 -72 -9 -80 -11 -8 -2 -26 -6 -40 -9 -300 -55 -620 -200
-863 -389 -318 -249 -569 -632 -667 -1017 -11 -47 -25 -101 -30 -120 -10 -41
-27 -161 -35 -245 -6 -66 -6 -337 -1 -400 45 -497 231 -910 556 -1235 318
-318 759 -524 1230 -575 122 -14 135 -14 280 -15 366 -2 646 56 930 193 241
116 438 272 603 477 50 62 137 194 137 207 0 6 -169 116 -258 168 -23 13 -245
154 -358 227 -50 32 -95 58 -100 58 -5 0 -22 -20 -38 -45 -40 -64 -157 -186
-229 -241 -117 -87 -291 -158 -467 -189 -19 -4 -100 -8 -180 -10 -271 -6 -472
47 -673 178 -153 100 -269 229 -353 392 -43 84 -97 238 -109 315 -4 25 -10 61
-13 80 -9 50 -8 365 1 430 20 140 82 326 137 413 16 26 30 50 30 53 0 13 101
132 156 185 115 108 233 183 369 234 39 15 77 29 85 30 144 34 177 38 320 39
250 2 366 -22 547 -110 155 -75 294 -197 384 -336 13 -21 27 -38 31 -38 5 0
126 78 270 173 145 95 305 199 355 232 51 33 93 64 93 69 0 8 -77 126 -89 136
-3 3 -19 23 -35 45 -64 87 -237 244 -364 329 -279 186 -550 290 -862 331 -60
7 -338 23 -343 19z"/>
<path d="M3500 4350 c-116 -24 -257 -125 -316 -225 -111 -190 -84 -430 67
-586 30 -31 62 -61 72 -66 15 -8 16 -14 8 -34 -6 -13 -40 -109 -76 -214 -126
-364 -157 -450 -175 -500 -37 -98 -98 -88 513 -89 297 -1 544 2 550 6 7 4 7
15 -1 35 -6 15 -57 159 -112 318 -56 160 -115 326 -131 371 -16 44 -29 83 -29
86 0 3 31 37 69 74 103 104 149 211 149 350 0 198 -129 384 -316 454 -65 25
-201 34 -272 20z"/>
</g>
</svg>
